#!OML:ASF G:\JayActor3\Patient Classification 1\Patient 1\Session 6\male.ASF
:FULLY-SPECIFIED
:DEGREES
1485
root -32.108 16.4311 -16.5164 175.441 -20.9454 -174.428
lowerback 1.76056 -0.933064 4.07256
upperback 0.674515 -1.1893 -0.15856
thorax -0.380359 -0.597193 -2.4201
lowerneck -9.19767 -1.42977 0.631075
upperneck 9.60966 -2.50683 3.48019
head 4.4235 -1.05002 0.80211
rclavicle 2.16613e-014 6.36111e-015
rhumerus -33.3966 -12.4566 -81.0064
rradius 25.1472
rwrist 5.39321
rhand -20.7747 -10.3406
rfingers 7.12502
rthumb 5.59187 -40.2468
lclavicle 2.16613e-014 6.36111e-015
lhumerus -20.1475 -3.76228 88.6568
lradius 37.5749
lwrist 21.7568
lhand -25.6469 10.1146
lfingers 7.12502
lthumb 0.886802 40.0925
rfemur -8.8902 -0.168407 19.1517
rtibia 32.1845
rfoot -28.4392 -25.2247
rtoes 5.11809
lfemur -8.05988 9.97123 -9.06284
ltibia 26.8594
lfoot -15.0612 6.9969
ltoes -9.25637
1486
root -32.108 16.4317 -16.5132 175.477 -20.8745 -174.438
lowerback 1.79435 -0.948686 4.03078
upperback 0.684257 -1.20961 -0.163947
thorax -0.390038 -0.607466 -2.40125
lowerneck -9.27501 -1.33632 0.689825
upperneck 9.979 -2.39114 3.32482
head 4.54537 -0.995305 0.750781
rclavicle 1.77602e-014 6.36111e-015
rhumerus -33.41 -12.4456 -81.0462
rradius 25.1711
rwrist 5.3948
rhand -20.7559 -10.3315
rfingers 7.12502
rthumb 5.61002 -40.2372
lclavicle 1.77602e-014 6.36111e-015
lhumerus -20.2242 -3.6848 88.6059
lradius 37.2501
lwrist 21.6594
lhand -25.6602 10.1411
lfingers 7.12502
lthumb 0.873914 40.119
rfemur -8.95678 -0.0942864 19.1482
rtibia 32.2019
rfoot -28.4354 -25.2232
rtoes 5.15483
lfemur -8.08459 9.97227 -9.08144
ltibia 26.8576
lfoot -15.0696 7.06659
ltoes -9.03318
1487
root -32.1083 16.4323 -16.5101 175.516 -20.8092 -174.451
lowerback 1.82905 -0.964258 3.99185
upperback 0.693446 -1.22977 -0.172457
thorax -0.400886 -0.617679 -2.38716
lowerneck -9.3539 -1.24608 0.744683
upperneck 10.3456 -2.28119 3.18527
head 4.66747 -0.943432 0.704676
rclavicle 1.19581e-014 6.36111e-015
rhumerus -33.4189 -12.4546 -81.0725
rradius 25.1856
rwrist 5.37025
rhand -20.7074 -10.2367
rfingers 7.12502
rthumb 5.65686 -40.1411
lclavicle 1.19581e-014 6.36111e-015
lhumerus -20.3134 -3.5846 88.5482
lradius 36.8776
lwrist 21.5505
lhand -25.6693 10.1772
lfingers 7.12502
lthumb 0.865106 40.1552
rfemur -9.02358 -0.017332 19.1421
rtibia 32.2182
rfoot -28.4239 -25.2433
rtoes 5.15941
lfemur -8.10966 9.96023 -9.10689
ltibia 26.8526
lfoot -15.0759 7.14694
ltoes -8.77593
1488
root -32.1089 16.4329 -16.5072 175.553 -20.7416 -174.464
lowerback 1.86485 -0.978683 3.95861
upperback 0.703235 -1.24832 -0.182511
thorax -0.41175 -0.627081 -2.37786
lowerneck -9.43708 -1.15807 0.801001
upperneck 10.7091 -2.17531 3.05319
head 4.78994 -0.893705 0.66045
rclavicle -1.93815e-015 5.56597e-015
rhumerus -33.4216 -12.4814 -81.0861
rradius 25.1872
rwrist 5.33424
rhand -20.6312 -10.0749
rfingers 7.12502
rthumb 5.73038 -39.9774
lclavicle -1.93815e-015 5.56597e-015
lhumerus -20.4126 -3.45161 88.4811
lradius 36.4551
lwrist 21.4279
lhand -25.6381 10.2189
lfingers 7.12502
lthumb 0.895252 40.1968
rfemur -9.087 0.0520739 19.1335
rtibia 32.2318
rfoot -28.423 -25.2411
rtoes 5.19236
lfemur -8.1297 9.9205 -9.13522
ltibia 26.8445
lfoot -15.0818 7.25239
ltoes -8.49132
1489
root -32.1096 16.4337 -16.5044 175.59 -20.6698 -174.475
lowerback 1.90176 -0.990651 3.93092
upperback 0.714088 -1.26354 -0.192971
thorax -0.422019 -0.6348 -2.37215
lowerneck -9.5099 -1.07278 0.850318
upperneck 11.0569 -2.07376 2.93973
head 4.90663 -0.846171 0.623013
rclavicle -5.95702e-014 -7.95139e-016
rhumerus -33.4214 -12.4961 -81.1075
rradius 25.1935
rwrist 5.29686
rhand -20.5727 -9.95708
rfingers 7.12502
rthumb 5.78691 -39.8581
lclavicle -5.95702e-014 -7.95139e-016
lhumerus -20.519 -3.28908 88.4055
lradius 35.981
lwrist 21.2943
lhand -25.5831 10.2665
lfingers 7.12502
lthumb 0.948419 40.2441
rfemur -9.14841 0.0943207 19.1234
rtibia 32.2417
rfoot -28.3912 -25.2298
rtoes 5.18686
lfemur -8.14623 9.88738 -9.16023
ltibia 26.8355
lfoot -15.0806 7.36035
ltoes -8.27505
